<?xml version="1.0" encoding="UTF-8"?>
<svg version="1.1" xmlns="http://www.w3.org/2000/svg" width="819" height="819">
<path d="M0 0 C1.25968597 0.00182281 2.51937195 0.00364563 3.81723022 0.00552368 C22.06639007 0.05000591 39.94903803 0.42693605 58 3.3125 C59.12857422 3.48410645 60.25714844 3.65571289 61.41992188 3.83251953 C117.16883895 12.45372437 171.33381761 32.00384107 219 62.3125 C219.9895166 62.93970947 219.9895166 62.93970947 220.99902344 63.57958984 C238.79676766 74.94909997 255.83056078 87.72677798 271.41796875 101.9765625 C272.82446183 103.24900254 274.23708262 104.5152703 275.6784668 105.74804688 C281.34459804 110.60410918 286.66194529 115.78828208 291.93579102 121.06298828 C293.42641615 122.55143237 294.92487017 124.03167277 296.42382812 125.51171875 C302.00951668 131.06569104 307.18077119 136.74886893 312.07763672 142.92871094 C313.86758052 145.14829581 315.73400802 147.2369669 317.6875 149.3125 C365.86734806 202.97388766 395.19423938 277.34653922 406.25 347.6875 C406.40114258 348.6472876 406.55228516 349.6070752 406.70800781 350.59594727 C407.18599221 353.83043425 407.60423862 357.06686333 408 360.3125 C408.08720306 361.02168579 408.17440613 361.73087158 408.26425171 362.46154785 C410.12481357 378.0736528 410.35964539 393.60352796 410.3125 409.3125 C410.30976578 411.20202896 410.30976578 411.20202896 410.30697632 413.12973022 C410.26249409 431.37889007 409.88556395 449.26153803 407 467.3125 C406.74259033 469.00536133 406.74259033 469.00536133 406.47998047 470.73242188 C397.85877563 526.48133895 378.30865893 580.64631761 348 628.3125 C347.58186035 628.97217773 347.1637207 629.63185547 346.73291016 630.31152344 C335.36340003 648.10926766 322.58572202 665.14306078 308.3359375 680.73046875 C307.06349746 682.13696183 305.7972297 683.54958262 304.56445312 684.9909668 C299.70839082 690.65709804 294.52421792 695.97444529 289.24951172 701.24829102 C287.76106763 702.73891615 286.28082723 704.23737017 284.80078125 705.73632812 C279.24680896 711.32201668 273.56363107 716.49327119 267.38378906 721.39013672 C265.16420419 723.18008052 263.0755331 725.04650802 261 727 C207.33861234 775.17984806 132.96596078 804.50673938 62.625 815.5625 C61.6652124 815.71364258 60.7054248 815.86478516 59.71655273 816.02050781 C56.48206575 816.49849221 53.24563667 816.91673862 50 817.3125 C49.29081421 817.39970306 48.58162842 817.48690613 47.85095215 817.57675171 C32.2388472 819.43731357 16.70897204 819.67214539 1 819.625 C-0.25968597 819.62317719 -1.51937195 819.62135437 -2.81723022 819.61947632 C-21.06639007 819.57499409 -38.94903803 819.19806395 -57 816.3125 C-58.69286133 816.05509033 -58.69286133 816.05509033 -60.41992188 815.79248047 C-116.16883895 807.17127563 -170.33381761 787.62115893 -218 757.3125 C-218.65967773 756.89436035 -219.31935547 756.4762207 -219.99902344 756.04541016 C-237.79676766 744.67590003 -254.83056078 731.89822202 -270.41796875 717.6484375 C-271.82446183 716.37599746 -273.23708262 715.1097297 -274.6784668 713.87695312 C-280.34459804 709.02089082 -285.66194529 703.83671792 -290.93579102 698.56201172 C-292.42641615 697.07356763 -293.92487017 695.59332723 -295.42382812 694.11328125 C-301.00951668 688.55930896 -306.18077119 682.87613107 -311.07763672 676.69628906 C-312.86758052 674.47670419 -314.73400802 672.3880331 -316.6875 670.3125 C-364.86734806 616.65111234 -394.19423938 542.27846078 -405.25 471.9375 C-405.47671387 470.4978186 -405.47671387 470.4978186 -405.70800781 469.02905273 C-406.18599221 465.79456575 -406.60423862 462.55813667 -407 459.3125 C-407.08720306 458.60331421 -407.17440613 457.89412842 -407.26425171 457.16345215 C-409.12481357 441.5513472 -409.35964539 426.02147204 -409.3125 410.3125 C-409.31067719 409.05281403 -409.30885437 407.79312805 -409.30697632 406.49526978 C-409.26249409 388.24610993 -408.88556395 370.36346197 -406 352.3125 C-405.82839355 351.18392578 -405.65678711 350.05535156 -405.47998047 348.89257812 C-396.85877563 293.14366105 -377.30865893 238.97868239 -347 191.3125 C-346.58186035 190.65282227 -346.1637207 189.99314453 -345.73291016 189.31347656 C-334.36340003 171.51573234 -321.58572202 154.48193922 -307.3359375 138.89453125 C-306.06349746 137.48803817 -304.7972297 136.07541738 -303.56445312 134.6340332 C-298.70839082 128.96790196 -293.52421792 123.65055471 -288.24951172 118.37670898 C-286.76106763 116.88608385 -285.28082723 115.38762983 -283.80078125 113.88867188 C-278.24680896 108.30298332 -272.56363107 103.13172881 -266.38378906 98.23486328 C-264.16420419 96.44491948 -262.0755331 94.57849198 -260 92.625 C-206.33861234 44.44515194 -131.96596078 15.11826062 -61.625 4.0625 C-60.1853186 3.83578613 -60.1853186 3.83578613 -58.71655273 3.60449219 C-55.48206575 3.12650779 -52.24563667 2.70826138 -49 2.3125 C-48.29081421 2.22529694 -47.58162842 2.13809387 -46.85095215 2.04824829 C-31.2388472 0.18768643 -15.70897204 -0.04714539 0 0 Z " fill="#FEFCFB" transform="translate(409,-0.3125)"/>
<path d="M0 0 C6.40509677 5.17052659 12.87165971 14.06699514 13.82861328 22.44726562 C14.32936365 31.69124309 14.38707354 40.32799312 9.609375 48.52734375 C9.10083984 49.4709375 9.10083984 49.4709375 8.58203125 50.43359375 C0.98143167 62.76766281 -13.32984538 65.34787552 -26.390625 68.52734375 C-27.66462158 68.84711182 -27.66462158 68.84711182 -28.96435547 69.17333984 C-43.90990473 72.87668777 -57.08072116 75.50226782 -70.87890625 67.25390625 C-73.390625 65.52734375 -73.390625 65.52734375 -75.390625 63.52734375 C-82.43578513 63.91433142 -87.31684666 67.92923213 -92.390625 72.52734375 C-103.15329425 87.70270739 -97.44687935 113.5564029 -94.640625 130.59765625 C-87.91539199 168.7463277 -76.55281329 205.40431753 -51.390625 235.52734375 C-50.83890625 236.21441406 -50.2871875 236.90148437 -49.71875 237.609375 C-36.3005057 253.80711277 -14.45663807 268.23741054 5.609375 274.52734375 C6.84158028 274.92682724 6.84158028 274.92682724 8.09867859 275.3343811 C15.16465437 277.46272601 21.65091894 277.9671073 29.00390625 277.92578125 C30.15372482 277.92865143 31.3035434 277.93152161 32.48820496 277.93447876 C34.90596004 277.936508 37.32373198 277.9310586 39.74145508 277.91845703 C43.40158646 277.90243258 47.06060623 277.91832303 50.72070312 277.9375 C84.94408408 277.96871081 112.11204887 265.09952855 136.484375 241.15234375 C153.79572458 223.42692325 165.15273729 200.99552135 172.609375 177.52734375 C172.86912109 176.71652344 173.12886719 175.90570313 173.39648438 175.0703125 C177.89489274 160.78647755 181.00902059 146.26505367 183.609375 131.52734375 C183.77598633 130.59809082 183.94259766 129.66883789 184.11425781 128.71142578 C186.05812792 117.53719112 186.91441551 106.4948573 187.046875 95.15234375 C187.06919189 94.01684082 187.09150879 92.88133789 187.11450195 91.71142578 C187.09178242 83.48695471 185.77461341 78.20586406 180.296875 71.83984375 C173.38757288 65.70765948 173.38757288 65.70765948 164.609375 63.52734375 C161.93147905 64.83072249 161.93147905 64.83072249 159.546875 66.83984375 C151.12353294 73.40020337 142.90968107 73.52583256 132.609375 72.52734375 C125.48112716 71.40312191 118.53730538 69.51844185 111.609375 67.52734375 C110.76536133 67.28677246 109.92134766 67.04620117 109.05175781 66.79833984 C95.53062197 62.85621753 85.64575906 58.48395029 78.57421875 45.6484375 C74.87711609 36.86137025 74.93239495 23.87341389 78.171875 14.96484375 C79.30078125 12.6953125 79.30078125 12.6953125 80.609375 10.52734375 C81.30353516 9.34591797 81.30353516 9.34591797 82.01171875 8.140625 C86.74967794 1.13215236 93.72225667 -3.07470355 101.95043945 -5.02856445 C111.6954251 -6.6561587 121.42906279 -4.98182138 131.046875 -3.28515625 C132.26697266 -3.08857422 133.48707031 -2.89199219 134.74414062 -2.68945312 C150.88914579 0.10008791 163.56244414 5.32643966 173.609375 18.52734375 C174.26679687 19.82865234 174.26679687 19.82865234 174.9375 21.15625 C177.1564338 24.30319584 178.84179857 24.53108941 182.546875 25.40234375 C199.21044634 30.03626237 212.14683988 41.42854792 220.65087891 56.35546875 C227.65784053 69.48123334 229.03081197 81.71192095 228.984375 96.46484375 C228.98206375 97.5814035 228.98206375 97.5814035 228.97970581 98.72052002 C228.7088635 154.18636888 210.23458861 220.97766302 171.6953125 262.2890625 C169.74493117 264.38188741 167.89306133 266.53032916 166.046875 268.71484375 C162.53250791 272.72329419 158.72169289 276.14263977 154.609375 279.52734375 C153.82796143 280.17727295 153.82796143 280.17727295 153.03076172 280.84033203 C133.04485356 297.41195748 112.00382318 310.52348238 86.546875 316.71484375 C85.52271484 316.97458984 84.49855469 317.23433594 83.44335938 317.50195312 C77.49504446 318.97287828 71.70223398 319.92649844 65.609375 320.52734375 C65.53931888 327.86502038 65.48628546 335.20262282 65.45393848 342.54056835 C65.43839969 345.94928639 65.41738267 349.35777269 65.38305664 352.76635742 C65.34368916 356.70097915 65.32956852 360.63551288 65.31640625 364.5703125 C65.30092239 365.77189499 65.28543854 366.97347748 65.26948547 368.21147156 C65.26623027 384.8790682 69.72368912 398.13491307 81.26171875 410.30859375 C93.53759295 421.91041829 107.48363461 425.05853972 123.83203125 424.8046875 C139.79876994 424.17404995 151.77413602 414.36258273 162.609375 403.52734375 C162.12222667 398.57894229 159.85321251 394.25446314 157.86328125 389.7578125 C155.37524994 383.34783775 154.24165136 377.37104723 154.296875 370.46484375 C154.30106445 369.73458984 154.30525391 369.00433594 154.30957031 368.25195312 C154.52606675 357.59295815 156.37174536 346.91778653 161.609375 337.52734375 C162.07988281 336.66882813 162.55039062 335.8103125 163.03515625 334.92578125 C172.71532022 318.52263943 188.25045371 307.42972027 206.41796875 301.98535156 C219.25745979 299.30187505 235.64470793 300.03144818 247.609375 305.52734375 C248.62644531 305.96304687 249.64351562 306.39875 250.69140625 306.84765625 C257.8338109 310.13585764 263.74077542 314.32446664 269.609375 319.52734375 C270.23457031 320.0584375 270.85976563 320.58953125 271.50390625 321.13671875 C283.58510978 332.15434003 289.75101652 348.23721096 290.8671875 364.21875 C291.43046416 383.42648425 285.25153443 400.65752953 272.71484375 415.328125 C258.92988665 429.72688353 240.72463152 437.45181897 220.921875 437.96484375 C211.1445403 437.68370633 201.94495378 435.23843355 192.609375 432.52734375 C191.84496094 433.34976562 191.08054687 434.1721875 190.29296875 435.01953125 C175.74116959 450.3217079 160.09018853 459.20494125 139.609375 464.52734375 C139.0323584 464.70168945 138.4553418 464.87603516 137.86083984 465.05566406 C119.37435797 468.92856397 97.50003727 466.50127383 80.609375 458.52734375 C79.44486816 457.99778076 79.44486816 457.99778076 78.25683594 457.45751953 C68.76560862 453.07193159 60.9856541 448.02633359 53.609375 440.52734375 C52.96355469 439.96273438 52.31773437 439.398125 51.65234375 438.81640625 C40.19546225 428.50287952 31.42102252 413.41135144 27.609375 398.52734375 C27.34229736 397.56086914 27.07521973 396.59439453 26.80004883 395.59863281 C23.51779997 381.52882244 24.267245 367.04309692 24.40338135 352.68786621 C24.43448925 349.05368323 24.4478602 345.41943499 24.46289062 341.78515625 C24.49472717 334.69906244 24.54568868 327.61322904 24.609375 320.52734375 C23.64620361 320.41342285 22.68303223 320.29950195 21.69067383 320.18212891 C14.05157521 319.22990638 6.69648167 318.09306547 -0.703125 315.90234375 C-2.02352783 315.51755859 -2.02352783 315.51755859 -3.37060547 315.125 C-12.41515984 312.38353694 -20.91465582 308.67722055 -29.390625 304.52734375 C-30.380625 304.058125 -31.370625 303.58890625 -32.390625 303.10546875 C-80.11702543 278.95818282 -108.92979968 230.79442872 -125.16479492 181.94458008 C-136.54372802 146.60269003 -150.05306987 93.89683562 -132.390625 58.52734375 C-129.951101 54.34017756 -127.28467904 50.41220546 -124.390625 46.52734375 C-123.85824219 45.79773438 -123.32585937 45.068125 -122.77734375 44.31640625 C-115.41990938 35.07853581 -105.86798163 29.83490345 -94.953125 26.02734375 C-88.53409761 23.76606553 -84.88141961 22.06767853 -81.64453125 15.796875 C-76.98896193 7.37043957 -68.10218816 3.46127119 -59.390625 0.52734375 C-54.64479359 -0.72190291 -49.82482731 -1.58575976 -44.99047852 -2.41333008 C-42.82407138 -2.78585329 -40.66330948 -3.18329859 -38.50195312 -3.58398438 C-25.19866683 -5.98526012 -12.08875574 -7.44683156 0 0 Z " fill="#283242" transform="translate(334.390625,198.47265625)"/>
<path d="M0 0 C7.03968228 4.20721753 12.30103014 10.37269187 14.3203125 18.38671875 C15.46823044 27.22329537 14.17951339 35.17779734 8.8125 42.421875 C3.07474689 48.7067162 -3.02414607 51.44946982 -11.5144043 51.95922852 C-19.51870659 52.15903404 -25.58594551 50.84206872 -31.6796875 45.38671875 C-37.40032883 39.45871941 -40.71733045 32.76683214 -41.1171875 24.51171875 C-40.82207165 16.81509734 -38.22612933 10.65309317 -32.9921875 5.01171875 C-23.52548242 -3.60071644 -11.75693837 -5.3870216 0 0 Z " fill="#FCFBFB" transform="translate(569.6796875,542.61328125)"/>
<path d="M0 0 C3.23097216 2.76359882 5.04961789 6.36083106 7.125 10 C11.1732957 16.93048803 15.72337684 22.9374968 21 29 C22.0238226 30.2266779 23.04526381 31.45535475 24.0625 32.6875 C24.701875 33.450625 25.34125 34.21375 26 35 C23 35 23 35 20.72265625 32.82421875 C19.82294842 31.78980168 18.93721178 30.74313827 18.0625 29.6875 C17.59030029 29.12369629 17.11810059 28.55989258 16.6315918 27.97900391 C12.47276857 22.86202376 8.84777542 17.43573227 5.3125 11.875 C4.51888062 10.63109497 4.51888062 10.63109497 3.70922852 9.36206055 C0 3.38604707 0 3.38604707 0 0 Z " fill="#121724" transform="translate(262,405)"/>
<path d="M0 0 C0.99 0 1.98 0 3 0 C2.25 2.4375 2.25 2.4375 1 5 C-0.32 5.33 -1.64 5.66 -3 6 C-4.485 11.445 -4.485 11.445 -6 17 C-6.33 17 -6.66 17 -7 17 C-6.7507346 10.14520141 -4.73797918 5.09155972 0 0 Z " fill="#141926" transform="translate(419,204)"/>
<path d="M0 0 C0.66 0.33 1.32 0.66 2 1 C-0.97 4.3 -3.94 7.6 -7 11 C-7.33 10.01 -7.66 9.02 -8 8 C-5.36 5.36 -2.72 2.72 0 0 Z " fill="#1C2130" transform="translate(478,432)"/>
<path d="M0 0 C1.15224028 0.92961422 2.29659176 1.8690125 3.4375 2.8125 C4.07558594 3.33457031 4.71367187 3.85664063 5.37109375 4.39453125 C7 6 7 6 8 9 C4.20620942 7.50958227 2.31656242 5.30937488 0 2 C0 1.34 0 0.68 0 0 Z " fill="#202430" transform="translate(280,432)"/>
<path d="M0 0 C0.99 0 1.98 0 3 0 C2.1875 2.4375 2.1875 2.4375 1 5 C0.01 5.33 -0.98 5.66 -2 6 C-1.125 1.125 -1.125 1.125 0 0 Z " fill="#1C2533" transform="translate(419,204)"/>
</svg>
