<?xml version="1.0" encoding="UTF-8"?>
<svg version="1.1" xmlns="http://www.w3.org/2000/svg" width="1024" height="273">
<path d="M0 0 C337.92 0 675.84 0 1024 0 C1024 90.09 1024 180.18 1024 273 C686.08 273 348.16 273 0 273 C0 182.91 0 92.82 0 0 Z " fill="#FDFCFB" transform="translate(0,0)"/>
<path d="M0 0 C4.53303842 4.20135268 5.7444796 7.80020859 6 13.875 C6.10688645 18.83453129 4.837974 21.63011094 1.5625 25.375 C-1.15209155 26.48457075 -3.30743082 27.1817755 -6.125 27.75 C-6.83889893 27.90863525 -7.55279785 28.06727051 -8.28833008 28.23071289 C-15.93861212 29.84280799 -21.51724127 30.56357765 -28.4375 26.375 C-33.86442753 26.47367141 -37.34318109 27.82659028 -41.4375 31.375 C-45.68198825 37.0649796 -46.05352831 42.49280874 -45.4375 49.375 C-45.31375 50.86580078 -45.31375 50.86580078 -45.1875 52.38671875 C-42.7273331 74.04131286 -35.10870333 94.35574687 -21.4375 111.375 C-20.90898437 112.07882813 -20.38046875 112.78265625 -19.8359375 113.5078125 C-11.7211421 123.70127471 1.72260441 132.02567128 14.5625 134.375 C33.3314308 135.59949709 47.66159099 130.83409084 62.3125 118.625 C81.66462059 100.40499616 91.96982329 72.38242442 92.95556641 46.1472168 C93.09855191 39.84092745 92.56230797 36.42738902 88.5625 31.375 C84.70826127 28.27485146 81.56325655 26.48139908 76.5625 26.375 C75.386875 27.0865625 75.386875 27.0865625 74.1875 27.8125 C68.78935578 31.02568109 61.36255157 29.2813486 55.375 28.25 C54.34729492 28.11078125 54.34729492 28.11078125 53.29882812 27.96875 C49.42891019 27.29831186 47.1352894 26.33232719 44.63671875 23.3828125 C41.28695695 18.52534247 41.03222431 15.1883927 41.5625 9.375 C43.34004586 4.23986752 45.96629468 1.26890705 50.5625 -1.625 C53.95641686 -2.06292476 56.22479971 -2.04278642 59.5625 -1.625 C60.19140137 -1.54717285 60.82030273 -1.4693457 61.46826172 -1.38916016 C63.61049298 -1.10643167 65.74154712 -0.78000698 67.875 -0.4375 C68.91599854 -0.28667969 68.91599854 -0.28667969 69.97802734 -0.1328125 C73.61682955 0.52477041 75.40682797 1.21883766 78.04296875 3.86328125 C79.5625 6.375 79.5625 6.375 79.5625 8.375 C80.3359375 8.52195312 81.109375 8.66890625 81.90625 8.8203125 C92.69564589 11.14377152 100.30767764 16.15658324 106.5625 25.375 C110.37222739 32.04180602 111.23887109 37.89253537 111.125 45.5 C111.11549316 46.53825928 111.10598633 47.57651855 111.09619141 48.64624023 C110.25852263 80.70280748 96.08338343 111.36202152 72.95703125 133.390625 C63.34405939 142.12316676 51.15964571 148.36602714 38.35375977 150.43798828 C37.27014664 150.61451935 36.18653351 150.79105042 35.07008362 150.97293091 C34.24258102 151.10561371 33.41507843 151.23829651 32.5625 151.375 C32.60428452 159.04344146 32.67672449 166.71116393 32.77001953 174.37915039 C32.79816511 176.98520409 32.81941136 179.59134214 32.83349609 182.19750977 C32.85501346 185.95372502 32.90171255 189.70893291 32.953125 193.46484375 C32.95435364 194.62145004 32.95558228 195.77805634 32.95684814 196.9697113 C33.12496194 206.35184341 35.30757135 213.90082259 41.8203125 220.8671875 C47.93923886 226.16293991 54.56831623 227.04474841 62.48046875 226.75 C70.32952782 225.79498141 74.42103199 221.96768855 79.3125 215.984375 C79.725 215.45328125 80.1375 214.9221875 80.5625 214.375 C79.98242188 213.66537109 79.98242188 213.66537109 79.390625 212.94140625 C71.45685789 202.86709307 69.10167507 194.11236822 70.5625 181.375 C72.8229901 173.67333019 77.81045347 167.29386004 84.6484375 163.09375 C92.4514706 159.03269188 100.63021826 157.96417082 109.2890625 160.0234375 C118.61226797 163.40057385 125.09423721 169.60128561 129.5625 178.375 C132.77483949 185.41155316 132.35978429 192.67970803 130.0625 199.9375 C126.5700022 208.57105226 120.77620108 214.58046246 112.34375 218.484375 C109.16117024 219.50351571 106.20029763 219.77268048 102.875 220.0625 C99.06626969 220.5268704 97.19010963 220.76001141 94.42578125 223.46875 C93.26428449 225.20185977 92.15421588 226.97052431 91.09765625 228.76953125 C86.75496628 236.13994908 80.46985983 240.47115475 72.44140625 243.05859375 C59.93411736 246.29131548 48.21108457 243.98315757 36.8125 238.125 C26.90649228 232.08342386 20.22841488 224.50074692 16.5625 213.375 C14.68763517 205.61359218 14.28962675 198.09995675 14.3671875 190.14453125 C14.3700174 189.02809738 14.37284729 187.91166351 14.37576294 186.76139832 C14.38685293 183.23665103 14.4119362 179.71216896 14.4375 176.1875 C14.44754426 173.78060266 14.45666757 171.37370129 14.46484375 168.96679688 C14.48675549 163.10277589 14.52011969 157.2389069 14.5625 151.375 C13.87923645 151.31296387 13.1959729 151.25092773 12.49200439 151.18701172 C11.59391052 151.10209473 10.69581665 151.01717773 9.77050781 150.9296875 C8.88099426 150.84702637 7.99148071 150.76436523 7.07501221 150.67919922 C-10.96144287 148.49545837 -26.70887392 134.15304857 -37.79345703 120.73339844 C-55.86814792 97.66204703 -65.71409205 65.59572861 -63.4375 36.375 C-61.62384014 26.13027269 -54.97222261 18.71170064 -46.9375 12.4375 C-42.78914436 9.69783656 -37.46503254 7.375 -32.4375 7.375 C-32.169375 6.75625 -31.90125 6.1375 -31.625 5.5 C-29.8573081 2.33676186 -27.84898877 1.49165091 -24.43359375 0.5234375 C-6.93703725 -3.2793267 -6.93703725 -3.2793267 0 0 Z " fill="#233148" transform="translate(152.4375,17.625)"/>
<path d="M0 0 C0.75990234 -0.03738281 1.51980469 -0.07476562 2.30273438 -0.11328125 C6.20800059 -0.17435405 8.12869809 -0.02600341 11.37109375 2.30078125 C14.41262533 6.33735014 16.93706459 10.5499361 19.4375 14.9375 C20.58158976 16.90986657 21.72751725 18.88116797 22.875 20.8515625 C23.79152344 22.4279248 23.79152344 22.4279248 24.7265625 24.03613281 C27.87078272 29.38976275 31.0984501 34.69199844 34.32925415 39.99368286 C35.4312585 41.80225666 36.53167416 43.61178735 37.6315918 45.42163086 C40.67206524 50.42378363 43.71681885 55.42327504 46.76953125 60.41796875 C47.59655169 61.77852579 48.42339583 63.13919002 49.25 64.5 C49.93191406 65.61632812 50.61382812 66.73265625 51.31640625 67.8828125 C52.6875 70.375 52.6875 70.375 52.6875 72.375 C53.3475 72.375 54.0075 72.375 54.6875 72.375 C54.44449409 71.58550461 54.44449409 71.58550461 54.19657898 70.78005981 C53.56033046 67.77420845 53.55235853 64.96795557 53.54223633 61.89404297 C53.53585648 60.57943085 53.52947662 59.26481873 53.52290344 57.91036987 C53.52137523 56.47930946 53.52026102 55.04824855 53.51953125 53.6171875 C53.51631754 52.14795906 53.51295338 50.67873094 53.50944519 49.20950317 C53.50346459 46.13461565 53.50160435 43.05975621 53.50219727 39.98486328 C53.50229918 36.03917122 53.48861227 32.09365793 53.47142506 28.14800835 C53.46032813 25.1163347 53.45827729 22.08470473 53.45880699 19.05301285 C53.45762472 17.59771225 53.45318916 16.1424106 53.44547462 14.68712997 C53.43571573 12.65716607 53.43980635 10.62714971 53.44458008 8.59716797 C53.44315506 7.4411911 53.44173004 6.28521423 53.44026184 5.09420776 C53.6875 2.375 53.6875 2.375 55.6875 0.375 C58.56092061 0.17643028 61.31611988 0.09671054 64.1875 0.125 C65.36505859 0.11339844 65.36505859 0.11339844 66.56640625 0.1015625 C72.43419213 0.12169213 72.43419213 0.12169213 74.6875 2.375 C74.93638897 4.22689152 74.93638897 4.22689152 74.93473816 6.51905823 C74.93893265 7.38702026 74.94312714 8.2549823 74.94744873 9.14924622 C74.94182922 10.10361069 74.93620972 11.05797516 74.93041992 12.04125977 C74.93231827 13.04456329 74.93421661 14.04786682 74.93617249 15.08157349 C74.93988818 18.40992965 74.92916544 21.73806937 74.91796875 25.06640625 C74.91677738 27.37043736 74.9163237 29.67446896 74.9165802 31.97850037 C74.915014 36.81146273 74.90671339 41.64435116 74.89331055 46.47729492 C74.87631102 52.68751548 74.87249639 58.89765476 74.87325573 65.10789585 C74.87298446 69.86635623 74.86751033 74.62479867 74.86025429 79.3832531 C74.8570613 81.67390749 74.85509875 83.96456392 74.85436058 86.25522041 C74.85220421 89.44956081 74.84347554 92.64381313 74.83276367 95.83813477 C74.83321686 96.79452347 74.83367004 97.75091217 74.83413696 98.73628235 C74.82987198 99.60142456 74.82560699 100.46656677 74.82121277 101.35792542 C74.81953692 102.1139634 74.81786108 102.87000139 74.81613445 103.64894962 C74.6875 105.375 74.6875 105.375 73.6875 106.375 C70.47216864 106.81951586 67.24125101 106.88627189 64 107 C63.10087891 107.07089844 62.20175781 107.14179688 61.27539062 107.21484375 C58.50158683 107.2921765 56.34309216 107.1936684 53.6875 106.375 C50.95816063 103.76651839 49.41860347 100.70054902 47.6875 97.375 C46.66902187 95.70339785 45.64009947 94.03812065 44.6015625 92.37890625 C43.50351945 90.56612609 42.40724427 88.75227421 41.3125 86.9375 C40.08517998 84.91243028 38.85729217 82.88770458 37.62890625 80.86328125 C36.98969238 79.80963379 36.35047852 78.75598633 35.69189453 77.67041016 C32.22926651 71.97752915 28.74103759 66.3004904 25.25 60.625 C24.60047363 59.56740479 23.95094727 58.50980957 23.28173828 57.42016602 C22.65380371 56.39979248 22.02586914 55.37941895 21.37890625 54.328125 C20.83435791 53.44286133 20.28980957 52.55759766 19.72875977 51.64550781 C16.74708484 46.86826617 13.71607084 42.12260884 10.6875 37.375 C10.67719254 38.22468857 10.66688507 39.07437714 10.65626526 39.94981384 C10.55846311 47.94043941 10.45597382 55.93098793 10.34816074 63.92148495 C10.29289417 68.02990417 10.23946835 72.13833046 10.19018555 76.24682617 C10.14259687 80.20853126 10.09025633 84.17014718 10.03455925 88.13174629 C10.01411069 89.64645747 9.99540183 91.16119312 9.97842598 92.67594719 C9.95443701 94.79048426 9.9243755 96.90485135 9.89282227 99.01928711 C9.87727798 100.22507919 9.8617337 101.43087128 9.84571838 102.67320251 C9.6875 105.375 9.6875 105.375 8.6875 106.375 C7.35706375 106.4733721 6.02156656 106.50578592 4.6875 106.5078125 C3.883125 106.50910156 3.07875 106.51039063 2.25 106.51171875 C1.404375 106.50785156 0.55875 106.50398438 -0.3125 106.5 C-1.158125 106.50386719 -2.00375 106.50773437 -2.875 106.51171875 C-3.679375 106.51042969 -4.48375 106.50914062 -5.3125 106.5078125 C-6.055 106.50668457 -6.7975 106.50555664 -7.5625 106.50439453 C-9.3125 106.375 -9.3125 106.375 -10.3125 105.375 C-10.40781163 104.0215941 -10.4343872 102.66326016 -10.43275452 101.3065033 C-10.43412918 100.43005661 -10.43550385 99.55360992 -10.43692017 98.65060425 C-10.43332489 97.68172272 -10.42972961 96.71284119 -10.42602539 95.71459961 C-10.42617142 94.70008224 -10.42631744 93.68556488 -10.4264679 92.64030457 C-10.42576829 89.26929627 -10.41797368 85.89834246 -10.41015625 82.52734375 C-10.40829224 80.19706757 -10.40686826 77.866791 -10.40586853 75.53651428 C-10.40204202 69.38962735 -10.3922106 63.24276387 -10.38116455 57.09588623 C-10.37095329 50.82890134 -10.36637152 44.56191268 -10.36132812 38.29492188 C-10.35058845 25.98827092 -10.33351044 13.68163741 -10.3125 1.375 C-7.06911813 -0.24669093 -3.56056679 0.06544066 0 0 Z " fill="#233249" transform="translate(312.3125,69.625)"/>
<path d="M0 0 C1.3300708 0.00737183 1.3300708 0.00737183 2.68701172 0.01489258 C9.26395229 0.13240251 15.10917123 0.82379509 21.25 3.3125 C22.08402344 3.62960938 22.91804687 3.94671875 23.77734375 4.2734375 C33.91438966 8.67813233 41.31021816 16.46892611 45.41796875 26.6875 C46.56559868 30.30819162 47.10934599 33.51484164 47.25 37.3125 C46.25 38.3125 46.25 38.3125 44.30053711 38.42602539 C43.4678833 38.42078857 42.63522949 38.41555176 41.77734375 38.41015625 C40.87822266 38.40693359 39.97910156 38.40371094 39.05273438 38.40039062 C37.63444336 38.38782227 37.63444336 38.38782227 36.1875 38.375 C34.7634082 38.36823242 34.7634082 38.36823242 33.31054688 38.36132812 C30.95696935 38.3495011 28.60351523 38.33302025 26.25 38.3125 C25.95867187 37.64863281 25.66734375 36.98476562 25.3671875 36.30078125 C21.91543361 28.86539944 19.1216384 25.3174556 11.75 21.5 C4.06849239 18.95421299 -4.82275418 19.00759208 -12.25 22.25 C-19.07250366 26.2157903 -22.50815955 32.69695863 -25.14135742 39.95922852 C-26.34783712 44.62399299 -26.22053422 49.33503775 -26.1875 54.125 C-26.20748047 55.14142578 -26.22746094 56.15785156 -26.24804688 57.20507812 C-26.24164938 67.24274014 -23.84847858 76.30756539 -16.71484375 83.65234375 C-10.37862265 89.00600969 -4.06074522 89.91840415 4.09765625 89.6328125 C11.48417682 88.88226146 17.03175838 86.76793442 22.25 81.3125 C24.11436122 78.37785734 25.67268082 75.42074662 27.25 72.3125 C33.85 72.3125 40.45 72.3125 47.25 72.3125 C45.83478129 83.6342497 41.83319696 93.45716811 32.69921875 100.69921875 C19.60639983 109.32335625 3.94918362 111.43385034 -11.34765625 108.66015625 C-23.72541319 105.22271004 -33.65106352 98.59375145 -40.40234375 87.62890625 C-48.95098183 71.8902156 -50.34195073 52.49640655 -46.125 35.1875 C-42.40126081 23.30267387 -36.63608125 13.09754409 -25.75 6.4921875 C-17.17784475 2.05609716 -9.61848264 -0.06276483 0 0 Z " fill="#223047" transform="translate(666.75,68.6875)"/>
<path d="M0 0 C5.29782925 4.14996624 7.73523341 9.11978015 9.484375 15.52734375 C9.99649496 20.08142464 9.97618905 24.57784326 9.91015625 29.15625 C9.90522408 31.06252419 9.90522408 31.06252419 9.90019226 33.00730896 C9.88982118 35.67446126 9.87223222 38.3402255 9.84106445 41.00708008 C9.80112962 44.43028551 9.78339101 47.85313911 9.77375507 51.27655125 C9.76381713 54.54899863 9.7435825 57.82135679 9.72265625 61.09375 C9.71526932 62.32589737 9.70788239 63.55804474 9.70027161 64.82752991 C9.68743637 65.95638107 9.67460114 67.08523224 9.66137695 68.24829102 C9.65153275 69.24627213 9.64168854 70.24425323 9.63154602 71.2724762 C9.484375 73.52734375 9.484375 73.52734375 8.484375 74.52734375 C5.62169933 74.60059543 2.783656 74.6197258 -0.078125 74.58984375 C-0.88443359 74.58533203 -1.69074219 74.58082031 -2.52148438 74.57617188 C-4.51956256 74.56434893 -6.51760283 74.54641289 -8.515625 74.52734375 C-9.175625 72.54734375 -9.835625 70.56734375 -10.515625 68.52734375 C-11.32 69.29046875 -12.124375 70.05359375 -12.953125 70.83984375 C-21.21712012 77.5579183 -31.35714516 77.41646623 -41.515625 76.52734375 C-48.36043398 75.11393514 -52.87911515 72.0833728 -57.17578125 66.59375 C-60.87042247 60.89560072 -61.46043797 54.14103457 -60.515625 47.52734375 C-58.54769693 41.48299325 -55.80495976 36.96999207 -50.45703125 33.46484375 C-45.88158065 31.25537062 -41.14982999 30.17869966 -36.1640625 29.34375 C-34.98328125 29.13814453 -33.8025 28.93253906 -32.5859375 28.72070312 C-30.11544732 28.29894397 -27.64407789 27.88230413 -25.171875 27.47070312 C-23.99367188 27.26380859 -22.81546875 27.05691406 -21.6015625 26.84375 C-20.5295459 26.66271729 -19.4575293 26.48168457 -18.35302734 26.29516602 C-15.3853769 25.49209764 -13.71690251 24.65732877 -11.515625 22.52734375 C-10.84212555 18.65472189 -11.18985535 17.03284839 -13.328125 13.71484375 C-16.55893161 10.48403714 -19.42622837 10.31064155 -23.828125 10.15234375 C-27.58752796 10.18710705 -30.04574794 10.32846899 -33.015625 12.71484375 C-35.60121765 15.29998516 -35.60121765 15.29998516 -36.56640625 18.18359375 C-38.515625 20.52734375 -38.515625 20.52734375 -40.53466797 20.92895508 C-43.10746487 21.02071145 -45.6316775 20.96211448 -48.203125 20.83984375 C-49.09580078 20.81728516 -49.98847656 20.79472656 -50.90820312 20.77148438 C-53.11236772 20.71254949 -55.31315172 20.63035193 -57.515625 20.52734375 C-58.37833853 17.69797402 -58.62228875 16.81206713 -57.546875 13.94140625 C-52.02358959 3.8811364 -46.52303445 -1.0217803 -35.515625 -4.47265625 C-23.84993746 -7.31794589 -10.43927062 -6.11118793 0 0 Z " fill="#222F47" transform="translate(540.515625,101.47265625)"/>
<path d="M0 0 C6.02709133 5.40892812 9.96569294 10.96021776 10.70349121 19.13449097 C10.80030266 22.63384582 10.80092835 26.12057645 10.765625 29.62109375 C10.76375183 30.8947731 10.76187866 32.16845245 10.75994873 33.48072815 C10.75324951 36.15958339 10.74104971 38.83766232 10.71875 41.51635742 C10.69026879 44.95530956 10.67951546 48.39402422 10.6750679 51.83308315 C10.6699286 55.1166162 10.65539727 58.40009182 10.640625 61.68359375 C10.63637512 62.92201523 10.63212524 64.16043671 10.62774658 65.43638611 C10.61813904 66.57169266 10.60853149 67.70699921 10.59863281 68.87670898 C10.59180481 69.8807225 10.58497681 70.88473602 10.57794189 71.91917419 C10.4375 74.1875 10.4375 74.1875 9.4375 75.1875 C6.57482433 75.26075168 3.736781 75.27988205 0.875 75.25 C0.06869141 75.24548828 -0.73761719 75.24097656 -1.56835938 75.23632812 C-3.56643756 75.22450518 -5.56447783 75.20656914 -7.5625 75.1875 C-8.2225 73.2075 -8.8825 71.2275 -9.5625 69.1875 C-10.366875 69.950625 -11.17125 70.71375 -12 71.5 C-20.23581746 78.19516801 -30.42776047 78.12954423 -40.5625 77.1875 C-47.32525198 75.38348271 -53.13493508 71.79638787 -56.8125 65.75 C-58.35866947 62.60244072 -59.23579962 60.61785404 -59.5625 57.1875 C-59.63726563 56.54167969 -59.71203125 55.89585937 -59.7890625 55.23046875 C-60.23152588 48.58187432 -58.44234326 43.56862705 -54.5625 38.1875 C-47.24985909 31.93023523 -38.37579738 30.52694732 -29.1875 29 C-26.51019571 28.54106081 -23.83731285 28.06481228 -21.1640625 27.58203125 C-19.99182129 27.38456299 -18.81958008 27.18709473 -17.61181641 26.98364258 C-14.5135313 26.17471482 -12.81122903 25.4487785 -10.5625 23.1875 C-9.89573122 19.73000051 -9.89573122 19.73000051 -10.5625 16.1875 C-12.78113029 13.28032927 -14.08194929 12.34768357 -17.5625 11.1875 C-22.52716601 10.66625279 -26.44132824 10.65749153 -31 12.8125 C-34.12208333 15.42666667 -34.12208333 15.42666667 -36.5625 21.1875 C-43.1625 21.1875 -49.7625 21.1875 -56.5625 21.1875 C-55.26276496 12.08935472 -51.61241173 6.13566365 -44.41796875 0.40234375 C-31.92831907 -7.77509004 -12.83732154 -6.53126885 0 0 Z " fill="#223047" transform="translate(783.5625,100.8125)"/>
<path d="M0 0 C7.32246046 6.06674927 12.30551638 14.53725879 13.5 24.0625 C13.65136631 28.73467356 13.61812711 33.38991655 13.5 38.0625 C11.01644959 39.30427521 9.36892378 39.18286681 6.59130859 39.17602539 C5.57040131 39.17594986 4.54949402 39.17587433 3.49765015 39.17579651 C1.83978989 39.16805458 1.83978989 39.16805458 0.1484375 39.16015625 C-0.9807309 39.1587413 -2.10989929 39.15732635 -3.27328491 39.15586853 C-6.89054988 39.15025744 -10.50775364 39.13770303 -14.125 39.125 C-16.57291577 39.11998643 -19.02083252 39.11542328 -21.46875 39.11132812 C-27.47918766 39.1002844 -33.48958946 39.08353544 -39.5 39.0625 C-39.22673171 40.82329009 -38.94032976 42.58204507 -38.6484375 44.33984375 C-38.49036621 45.31945068 -38.33229492 46.29905762 -38.16943359 47.30834961 C-37.05693403 51.88533998 -34.74549705 54.60090395 -30.765625 57.19140625 C-25.39494736 59.2563392 -17.77250155 59.2189031 -12.35546875 57.3046875 C-10.06580015 55.83234364 -8.64908964 54.35010555 -7.3984375 51.9375 C-5.15300755 49.7197914 -4.54079915 49.76898658 -1.48828125 49.671875 C0.07079139 49.69841241 1.62961831 49.74604401 3.1875 49.8125 C4.38342773 49.83957031 4.38342773 49.83957031 5.60351562 49.8671875 C7.56952449 49.91427753 9.53491494 49.98602101 11.5 50.0625 C12.57380105 53.93633923 12.57318032 55.91040229 10.625 59.4375 C6.2494957 66.73000717 -0.56762049 71.31667632 -8.5 74.0625 C-18.83128104 76.63155745 -30.30924508 76.27009463 -39.91015625 71.62109375 C-49.08644636 66.09871101 -56.09279723 58.08200135 -59.1953125 47.74609375 C-62.46192178 33.41442063 -60.3088328 19.55663248 -52.5 7.0625 C-47.35293379 0.10775102 -39.310771 -4.4510237 -30.98046875 -6.58203125 C-19.84884311 -8.17727209 -9.28436592 -6.65379558 0 0 Z " fill="#223047" transform="translate(457.5,102.9375)"/>
<path d="M0 0 C8.50145823 6.03375307 13.65133524 15.31084337 15.390625 25.52734375 C15.70131659 29.88195761 15.87684191 34.18296406 15.390625 38.52734375 C12.86757587 41.05039288 11.97731174 40.79453557 8.48193359 40.84619141 C7.46102631 40.8660611 6.44011902 40.88593079 5.38827515 40.90640259 C4.28303497 40.9179538 3.1777948 40.929505 2.0390625 40.94140625 C0.9098941 40.9607724 -0.21927429 40.98013855 -1.38265991 41.00009155 C-4.99982072 41.06001444 -8.61701313 41.10632377 -12.234375 41.15234375 C-14.68230578 41.1905118 -17.13022296 41.22956283 -19.578125 41.26953125 C-25.58842124 41.36572634 -31.59879893 41.4507364 -37.609375 41.52734375 C-37.33078145 43.12402244 -37.04080398 44.71871737 -36.74609375 46.3125 C-36.58584717 47.20074463 -36.42560059 48.08898926 -36.26049805 49.00415039 C-35.22226069 53.02746615 -33.69089476 54.71973686 -30.609375 57.52734375 C-25.81069165 60.19327894 -22.07191807 61.11261622 -16.609375 60.52734375 C-11.38528665 58.81600446 -8.26126204 56.60886456 -4.609375 52.52734375 C-2.79749658 50.71546533 -0.3395999 51.39499913 2.06835938 51.390625 C2.81408203 51.39449219 3.55980469 51.39835937 4.328125 51.40234375 C5.06998047 51.39847656 5.81183594 51.39460938 6.57617188 51.390625 C12.13735498 51.40070874 12.13735498 51.40070874 14.390625 52.52734375 C14.0251134 59.83757585 9.58757295 64.37921686 4.578125 69.27734375 C-5.6671746 76.50931994 -16.37674812 77.57626292 -28.609375 76.52734375 C-38.57529211 74.45111102 -46.45278151 69.02101845 -52.29296875 60.74609375 C-59.16001053 49.17196991 -60.36152122 36.26354807 -57.484375 23.21484375 C-54.36601543 12.45939059 -48.08305969 3.65942903 -38.171875 -1.8203125 C-25.61538984 -7.58225223 -12.12290041 -6.84181655 0 0 Z " fill="#212F46" transform="translate(914.609375,101.47265625)"/>
<path d="M0 0 C0.24890658 2.61055594 0.3272977 4.96094922 0.25 7.5625 C0.24484375 8.26052734 0.2396875 8.95855469 0.234375 9.67773438 C0.1541718 14.8458282 0.1541718 14.8458282 -1 16 C-2.68544926 16.13329564 -4.37374396 16.23119813 -6.0625 16.3125 C-12.7852912 16.88000835 -17.57443024 18.57443024 -22.375 23.375 C-26.18850611 29.5352791 -26.31660226 35.35850498 -26.37890625 42.39453125 C-26.39590073 43.38249191 -26.4128952 44.37045258 -26.43040466 45.38835144 C-26.4833499 48.52967019 -26.52377515 51.67097629 -26.5625 54.8125 C-26.606396 57.97181253 -26.6530062 61.13102206 -26.70530701 64.29020691 C-26.73732887 66.25327284 -26.76419858 68.2164306 -26.78553772 70.17964172 C-26.79902756 71.06113388 -26.8125174 71.94262604 -26.82641602 72.85083008 C-26.83592789 73.6299324 -26.84543976 74.40903473 -26.85523987 75.21174622 C-27 77 -27 77 -28 78 C-29.33043625 78.0983721 -30.66593344 78.13078592 -32 78.1328125 C-32.804375 78.13410156 -33.60875 78.13539063 -34.4375 78.13671875 C-35.283125 78.13285156 -36.12875 78.12898438 -37 78.125 C-37.845625 78.12886719 -38.69125 78.13273437 -39.5625 78.13671875 C-40.366875 78.13542969 -41.17125 78.13414062 -42 78.1328125 C-42.7425 78.13168457 -43.485 78.13055664 -44.25 78.12939453 C-46 78 -46 78 -47 77 C-47.10027795 74.60190851 -47.13618676 72.23260502 -47.12939453 69.83398438 C-47.13114685 69.08441971 -47.13289917 68.33485504 -47.13470459 67.56257629 C-47.1391232 65.07294431 -47.1361851 62.58338277 -47.1328125 60.09375 C-47.13348554 58.37121568 -47.13445556 56.64868145 -47.13571167 54.92614746 C-47.13718865 51.31127012 -47.13503407 47.69641745 -47.13037109 44.08154297 C-47.1246738 39.43733507 -47.1279528 34.79318496 -47.13394356 30.14897919 C-47.13754916 26.59063274 -47.13641059 23.0323001 -47.13381577 19.47395325 C-47.13314649 17.76105238 -47.13397493 16.04815028 -47.13629532 14.33525085 C-47.13882183 11.94547178 -47.1349813 9.55578759 -47.12939453 7.16601562 C-47.13141876 6.45117508 -47.13344299 5.73633453 -47.13552856 4.99983215 C-47.11426269 0.11426269 -47.11426269 0.11426269 -46 -1 C-43.34177343 -1.12658222 -40.72112576 -1.18520214 -38.0625 -1.1875 C-36.9497168 -1.20586914 -36.9497168 -1.20586914 -35.81445312 -1.22460938 C-33.87486371 -1.22988478 -31.9357629 -1.12188902 -30 -1 C-26.99382731 2.00617269 -27.40414684 4.82381598 -27 9 C-26.319375 8.0925 -25.63875 7.185 -24.9375 6.25 C-19.15566807 -0.69805371 -8.17333817 -5.44889212 0 0 Z " fill="#223048" transform="translate(854,98)"/>
<path d="M0 0 C1.16402344 -0.02126953 1.16402344 -0.02126953 2.3515625 -0.04296875 C4.375 0.1875 4.375 0.1875 6.375 2.1875 C6.52007695 4.93235593 6.56152423 7.57230543 6.5 10.3125 C6.49097656 11.06660156 6.48195313 11.82070312 6.47265625 12.59765625 C6.4490687 14.46107254 6.41319719 16.32432593 6.375 18.1875 C4.74691406 18.31705078 4.74691406 18.31705078 3.0859375 18.44921875 C1.6405136 18.59000679 0.19520654 18.73199795 -1.25 18.875 C-2.31927734 18.95524414 -2.31927734 18.95524414 -3.41015625 19.03710938 C-7.77690086 19.49782096 -11.02350204 20.36602605 -14.332901 23.50521851 C-19.36058143 30.05113624 -20.21598899 37.77751233 -20.19921875 45.75390625 C-20.22046562 47.19406349 -20.22046562 47.19406349 -20.24214172 48.66331482 C-20.28367099 51.69232777 -20.29922543 54.72074374 -20.3125 57.75 C-20.34155288 60.81111693 -20.3759953 63.87208431 -20.41499329 66.93309021 C-20.43750274 68.82939338 -20.45330868 70.72579006 -20.46183777 72.62220764 C-20.51535422 79.07785422 -20.51535422 79.07785422 -21.625 80.1875 C-22.95543625 80.2858721 -24.29093344 80.31828592 -25.625 80.3203125 C-26.429375 80.32160156 -27.23375 80.32289063 -28.0625 80.32421875 C-28.908125 80.32035156 -29.75375 80.31648438 -30.625 80.3125 C-31.470625 80.31636719 -32.31625 80.32023437 -33.1875 80.32421875 C-33.991875 80.32292969 -34.79625 80.32164062 -35.625 80.3203125 C-36.3675 80.31918457 -37.11 80.31805664 -37.875 80.31689453 C-39.625 80.1875 -39.625 80.1875 -40.625 79.1875 C-40.71996708 76.78401714 -40.75058862 74.40939018 -40.73852539 72.00561523 C-40.73867142 71.25444427 -40.73881744 70.50327332 -40.7389679 69.7293396 C-40.73826863 67.23489541 -40.73047564 64.74052497 -40.72265625 62.24609375 C-40.72079212 60.52116436 -40.71936819 58.79623443 -40.71836853 57.07130432 C-40.71454297 52.52237497 -40.70471238 47.97347733 -40.69366455 43.42456055 C-40.68345124 38.78629994 -40.67887108 34.14803423 -40.67382812 29.50976562 C-40.66309014 20.40232978 -40.64601327 11.29491752 -40.625 2.1875 C-37.59076019 0.6703801 -34.44995206 1.00310743 -31.125 1 C-30.43535156 0.98775391 -29.74570312 0.97550781 -29.03515625 0.96289062 C-27.23022506 0.95761305 -25.42582158 1.06565542 -23.625 1.1875 C-21.22736815 3.58513185 -21.28219414 4.52023498 -21 7.8125 C-20.92523437 8.62976563 -20.85046875 9.44703125 -20.7734375 10.2890625 C-20.69996094 11.22878906 -20.69996094 11.22878906 -20.625 12.1875 C-20.13 11.300625 -19.635 10.41375 -19.125 9.5 C-16.19754849 5.08791237 -11.68699486 2.16343462 -6.6640625 0.5625 C-4.41099297 0.14814238 -2.29056154 0.01915185 0 0 Z " fill="#212F46" transform="translate(603.625,95.8125)"/>
<path d="M0 0 C3.94706917 3.57115782 5.39214172 6.54539922 6.0625 11.8125 C5.40633403 17.15556574 3.54981907 20.67016025 -0.5625 24.3125 C-4.5819876 25.83097309 -8.13389103 26.0481919 -12.375 25.375 C-16.75753554 23.18373223 -19.54169816 20.95825461 -21.375 16.375 C-21.94595186 12.02149207 -21.89890389 8.52259899 -20.0625 4.5 C-14.74985151 -2.1900018 -7.8647773 -3.78674463 0 0 Z " fill="#FBFAF9" transform="translate(261.375,195.625)"/>
<path d="M0 0 C0.38507239 6.16115827 0.16066889 11.55794604 -3 17 C-7.959899 22.18534895 -13.06149816 23.99384578 -20.125 24.3125 C-24.1177627 23.99050301 -25.93817511 23.52150285 -29 21 C-31.32849047 17.78446554 -31.54457007 14.88978623 -31 11 C-28.23449423 6.54285917 -26.16852048 4.73738953 -21.09375 3.3203125 C-19.23435556 2.89832227 -17.36935495 2.50041379 -15.5 2.125 C-14.56285156 1.91359375 -13.62570312 1.7021875 -12.66015625 1.484375 C-8.34888377 0.54262186 -4.42767785 -0.11138192 0 0 Z " fill="#F9F8F7" transform="translate(531,139)"/>
<path d="M0 0 C0.68796661 13.95043411 0.68796661 13.95043411 -1.625 17.6875 C-6.4258016 22.36196472 -11.37663522 23.83075066 -17.875 24.25 C-21.88240986 24.19018791 -24.62094498 23.25270335 -28 21 C-30.38699285 17.85350943 -30.47251366 14.85886154 -30 11 C-27.68644914 6.85488804 -25.0340024 5.17042532 -20.5546875 3.69140625 C-6.91525424 0 -6.91525424 0 0 0 Z " fill="#FAF9F8" transform="translate(774,139)"/>
<path d="M0 0 C3.24098032 2.47392528 5.42023843 5.5838819 6.83203125 9.3984375 C6.83203125 11.3784375 6.83203125 13.3584375 6.83203125 15.3984375 C-4.38796875 15.3984375 -15.60796875 15.3984375 -27.16796875 15.3984375 C-26.11332364 6.96127665 -25.10197145 4.70981464 -19.16796875 -0.6015625 C-13.08734017 -4.34348778 -5.99502919 -3.33451328 0 0 Z " fill="#FBFAF9" transform="translate(445.16796875,113.6015625)"/>
<path d="M0 0 C6.01698269 5.15741373 6.56566895 6.7753516 7.625 15.25 C-3.595 15.25 -14.815 15.25 -26.375 15.25 C-26.375 8.69079891 -25.5638138 6.05031946 -21.375 1.25 C-14.83198757 -4.07435823 -7.26952974 -3.76938579 0 0 Z " fill="#FBFBFA" transform="translate(903.375,113.75)"/>
<path d="M0 0 C1.485 0.99 1.485 0.99 3 2 C3.32279968 4.86001587 3.32279968 4.86001587 3.2487793 8.56103516 C3.23946381 9.23432358 3.23014832 9.907612 3.22055054 10.6013031 C3.18612162 12.83106283 3.13024093 15.05974928 3.07421875 17.2890625 C3.04619217 18.83317772 3.01950106 20.37731771 2.99409485 21.92147827 C2.92357012 25.98903377 2.83486367 30.05599912 2.74243164 34.12310791 C2.651339 38.2719727 2.57735514 42.42113814 2.50195312 46.5703125 C2.35142728 54.71393506 2.18170221 62.85701371 2 71 C1.01 71.495 1.01 71.495 0 72 C-0.92594148 68.07185741 -1.12662562 64.42111321 -1.12939453 60.38964844 C-1.13254669 59.07188416 -1.13569885 57.75411987 -1.13894653 56.39642334 C-1.13715728 54.96740688 -1.13510646 53.53839073 -1.1328125 52.109375 C-1.13348637 50.63918034 -1.1344571 49.16898578 -1.13571167 47.6987915 C-1.13718286 44.62568088 -1.13505145 41.55259941 -1.13037109 38.47949219 C-1.12465401 34.53265967 -1.12796892 30.58589486 -1.13394356 26.63906479 C-1.13754767 23.60743697 -1.13641163 20.57582537 -1.13381577 17.54419708 C-1.13314712 16.08807619 -1.13397276 14.63195385 -1.13629532 13.17583466 C-1.1388215 11.14814785 -1.13429171 9.1204559 -1.12939453 7.09277344 C-1.12859894 5.93759216 -1.12780334 4.78241089 -1.12698364 3.59222412 C-1 1 -1 1 0 0 Z " fill="#363D4E" transform="translate(367,71)"/>
<path d="M0 0 C0.33 0 0.66 0 1 0 C1.33 2.64 1.66 5.28 2 8 C-1.07692746 10.6815279 -3.19734663 11.42087807 -7.25 11.6875 C-8.14203125 11.75324219 -9.0340625 11.81898438 -9.953125 11.88671875 C-10.62859375 11.92410156 -11.3040625 11.96148437 -12 12 C-9 10 -9 10 -5.4375 8.8125 C-1.6517532 7.29578967 -1.6517532 7.29578967 -0.5625 3.3125 C-0.376875 2.219375 -0.19125 1.12625 0 0 Z " fill="#121928" transform="translate(530,118)"/>
<path d="M0 0 C0.66 0.33 1.32 0.66 2 1 C-3.96583144 8.66742597 -3.96583144 8.66742597 -9 10 C-7.61811547 6.78956118 -6.07578097 4.95063635 -3.375 2.75 C-2.74335937 2.22921875 -2.11171875 1.7084375 -1.4609375 1.171875 C-0.73777344 0.59179688 -0.73777344 0.59179688 0 0 Z " fill="#182030" transform="translate(741,100)"/>
<path d="M0 0 C4.4943787 0.01505655 8.72069815 0.22535956 13.14453125 1.1328125 C13.14453125 1.4628125 13.14453125 1.7928125 13.14453125 2.1328125 C11.04176002 2.35478835 8.93720823 2.55994887 6.83203125 2.7578125 C5.66027344 2.87382812 4.48851562 2.98984375 3.28125 3.109375 C0.14453125 3.1328125 0.14453125 3.1328125 -2.85546875 1.1328125 C-1.85546875 0.1328125 -1.85546875 0.1328125 0 0 Z " fill="#0E1421" transform="translate(204.85546875,15.8671875)"/>
<path d="M0 0 C0.66 0.33 1.32 0.66 2 1 C1.8125 2.8125 1.8125 2.8125 1 5 C-1.4375 6.8125 -1.4375 6.8125 -4 8 C-4.66 7.67 -5.32 7.34 -6 7 C-4.02 4.69 -2.04 2.38 0 0 Z " fill="#151F30" transform="translate(691,147)"/>
<path d="M0 0 C0.33 0.66 0.66 1.32 1 2 C-0.14702444 4.96314646 -1.67614043 6.86979539 -4 9 C-4.66 9.66 -5.32 10.32 -6 11 C-5.55530671 5.96014269 -3.28656638 3.62365012 0 0 Z " fill="#151A26" transform="translate(98,37)"/>
</svg>
